<svg width="130" height="19" viewBox="0 0 130 19" fill="none" xmlns="http://www.w3.org/2000/svg">
<path d="M9.5 2V17" stroke="#29ABE2" stroke-width="3" stroke-linecap="round"/>
<path d="M17 9.64148L2 9.64148" stroke="#29ABE2" stroke-width="3" stroke-linecap="round"/>
<path d="M33.017 15H30.3807L34.3977 3.36364H37.5682L41.5795 15H38.9432L36.0284 6.02273H35.9375L33.017 15ZM32.8523 10.4261H39.0795V12.3466H32.8523V10.4261ZM45.7443 15.142C45.0814 15.142 44.4811 14.9716 43.9432 14.6307C43.4091 14.286 42.9848 13.7803 42.6705 13.1136C42.3598 12.4432 42.2045 11.6212 42.2045 10.6477C42.2045 9.64773 42.3655 8.81629 42.6875 8.15341C43.0095 7.48674 43.4375 6.98864 43.9716 6.65909C44.5095 6.32576 45.0985 6.15909 45.7386 6.15909C46.2273 6.15909 46.6345 6.24242 46.9602 6.40909C47.2898 6.57197 47.5549 6.77652 47.7557 7.02273C47.9602 7.26515 48.1155 7.50379 48.2216 7.73864H48.2955V3.36364H50.7102V15H48.3239V13.6023H48.2216C48.108 13.8447 47.947 14.0852 47.7386 14.3239C47.5341 14.5587 47.267 14.7538 46.9375 14.9091C46.6117 15.0644 46.214 15.142 45.7443 15.142ZM46.5114 13.2159C46.9015 13.2159 47.2311 13.1098 47.5 12.8977C47.7727 12.6818 47.9811 12.3807 48.125 11.9943C48.2727 11.608 48.3466 11.1553 48.3466 10.6364C48.3466 10.1174 48.2746 9.66667 48.1307 9.28409C47.9867 8.90151 47.7784 8.60606 47.5057 8.39773C47.233 8.18939 46.9015 8.08523 46.5114 8.08523C46.1136 8.08523 45.7784 8.19318 45.5057 8.40909C45.233 8.625 45.0265 8.92424 44.8864 9.30682C44.7462 9.68939 44.6761 10.1326 44.6761 10.6364C44.6761 11.1439 44.7462 11.5928 44.8864 11.983C45.0303 12.3693 45.2367 12.6723 45.5057 12.892C45.7784 13.108 46.1136 13.2159 46.5114 13.2159ZM55.9162 15.142C55.2533 15.142 54.6529 14.9716 54.1151 14.6307C53.581 14.286 53.1567 13.7803 52.8423 13.1136C52.5317 12.4432 52.3764 11.6212 52.3764 10.6477C52.3764 9.64773 52.5374 8.81629 52.8594 8.15341C53.1813 7.48674 53.6094 6.98864 54.1435 6.65909C54.6813 6.32576 55.2704 6.15909 55.9105 6.15909C56.3991 6.15909 56.8063 6.24242 57.1321 6.40909C57.4616 6.57197 57.7268 6.77652 57.9276 7.02273C58.1321 7.26515 58.2874 7.50379 58.3935 7.73864H58.4673V3.36364H60.8821V15H58.4957V13.6023H58.3935C58.2798 13.8447 58.1188 14.0852 57.9105 14.3239C57.706 14.5587 57.4389 14.7538 57.1094 14.9091C56.7836 15.0644 56.3859 15.142 55.9162 15.142ZM56.6832 13.2159C57.0734 13.2159 57.4029 13.1098 57.6719 12.8977C57.9446 12.6818 58.1529 12.3807 58.2969 11.9943C58.4446 11.608 58.5185 11.1553 58.5185 10.6364C58.5185 10.1174 58.4465 9.66667 58.3026 9.28409C58.1586 8.90151 57.9503 8.60606 57.6776 8.39773C57.4048 8.18939 57.0734 8.08523 56.6832 8.08523C56.2855 8.08523 55.9503 8.19318 55.6776 8.40909C55.4048 8.625 55.1984 8.92424 55.0582 9.30682C54.9181 9.68939 54.848 10.1326 54.848 10.6364C54.848 11.1439 54.9181 11.5928 55.0582 11.983C55.2022 12.3693 55.4086 12.6723 55.6776 12.892C55.9503 13.108 56.2855 13.2159 56.6832 13.2159ZM66.1776 5.39205V3.36364H75.7344V5.39205H72.1719V15H69.7401V5.39205H66.1776ZM78.5639 15.1648C78.0071 15.1648 77.5109 15.0682 77.0753 14.875C76.6397 14.678 76.295 14.3883 76.0412 14.0057C75.7912 13.6193 75.6662 13.1383 75.6662 12.5625C75.6662 12.0777 75.7552 11.6705 75.9332 11.3409C76.1113 11.0114 76.3537 10.7462 76.6605 10.5455C76.9673 10.3447 77.3158 10.1932 77.706 10.0909C78.0999 9.98864 78.5128 9.91667 78.9446 9.875C79.4522 9.82197 79.8613 9.77273 80.1719 9.72727C80.4825 9.67803 80.7079 9.60606 80.848 9.51136C80.9882 9.41667 81.0582 9.27652 81.0582 9.09091V9.05682C81.0582 8.69697 80.9446 8.41856 80.7173 8.22159C80.4938 8.02462 80.1757 7.92614 79.7628 7.92614C79.3272 7.92614 78.9806 8.02273 78.723 8.21591C78.4654 8.4053 78.295 8.64394 78.2116 8.93182L75.973 8.75C76.0866 8.2197 76.3101 7.76136 76.6435 7.375C76.9768 6.98485 77.4067 6.68561 77.9332 6.47727C78.4635 6.26515 79.0772 6.15909 79.7741 6.15909C80.259 6.15909 80.723 6.21591 81.1662 6.32955C81.6132 6.44318 82.009 6.61932 82.3537 6.85795C82.7022 7.09659 82.9768 7.40341 83.1776 7.77841C83.3783 8.14962 83.4787 8.5947 83.4787 9.11364V15H81.1832V13.7898H81.1151C80.9749 14.0625 80.7874 14.303 80.5526 14.5114C80.3177 14.7159 80.0355 14.8769 79.706 14.9943C79.3764 15.108 78.9957 15.1648 78.5639 15.1648ZM79.2571 13.4943C79.6132 13.4943 79.9276 13.4242 80.2003 13.2841C80.473 13.1402 80.687 12.947 80.8423 12.7045C80.9976 12.4621 81.0753 12.1875 81.0753 11.8807V10.9545C80.9995 11.0038 80.8954 11.0492 80.7628 11.0909C80.634 11.1288 80.4882 11.1648 80.3253 11.1989C80.1624 11.2292 79.9995 11.2576 79.8366 11.2841C79.6738 11.3068 79.526 11.3277 79.3935 11.3466C79.1094 11.3883 78.8613 11.4545 78.6491 11.5455C78.437 11.6364 78.2723 11.7595 78.1548 11.9148C78.0374 12.0663 77.9787 12.2557 77.9787 12.483C77.9787 12.8125 78.098 13.0644 78.3366 13.2386C78.5791 13.4091 78.8859 13.4943 79.2571 13.4943ZM92.6179 8.76136L90.402 8.89773C90.3641 8.70833 90.2827 8.53788 90.1577 8.38636C90.0327 8.23106 89.8679 8.10795 89.6634 8.01705C89.4626 7.92235 89.2221 7.875 88.9418 7.875C88.5668 7.875 88.2505 7.95455 87.9929 8.11364C87.7353 8.26894 87.6065 8.47727 87.6065 8.73864C87.6065 8.94697 87.6899 9.12311 87.8565 9.26705C88.0232 9.41098 88.3092 9.52652 88.7145 9.61364L90.294 9.93182C91.1425 10.1061 91.7751 10.3864 92.1918 10.7727C92.6084 11.1591 92.8168 11.6667 92.8168 12.2955C92.8168 12.8674 92.6482 13.3693 92.3111 13.8011C91.9777 14.233 91.5194 14.5701 90.9361 14.8125C90.3565 15.0511 89.688 15.1705 88.9304 15.1705C87.7751 15.1705 86.8546 14.9299 86.169 14.4489C85.4872 13.964 85.0876 13.3049 84.9702 12.4716L87.3509 12.3466C87.4228 12.6989 87.5971 12.9678 87.8736 13.1534C88.1501 13.3352 88.5043 13.4261 88.9361 13.4261C89.3603 13.4261 89.7012 13.3447 89.9588 13.1818C90.2202 13.0152 90.3527 12.8011 90.3565 12.5398C90.3527 12.3201 90.2599 12.1402 90.0781 12C89.8963 11.8561 89.616 11.7462 89.2372 11.6705L87.7259 11.3693C86.8736 11.1989 86.2391 10.9034 85.8224 10.483C85.4096 10.0625 85.2031 9.52652 85.2031 8.875C85.2031 8.31439 85.3546 7.83144 85.6577 7.42614C85.9645 7.02083 86.3944 6.70833 86.9474 6.48864C87.5043 6.26894 88.1558 6.15909 88.902 6.15909C90.0043 6.15909 90.8717 6.39205 91.5043 6.85795C92.1406 7.32386 92.5118 7.95833 92.6179 8.76136ZM96.5341 12.4886L96.5398 9.58523H96.892L99.6875 6.27273H102.466L98.7102 10.6591H98.1364L96.5341 12.4886ZM94.3409 15V3.36364H96.7614V15H94.3409ZM99.7955 15L97.2273 11.1989L98.8409 9.48864L102.631 15H99.7955Z" fill="#29ABE2"/>
</svg>
