<svg width="127" height="30" viewBox="0 0 127 30" fill="none" xmlns="http://www.w3.org/2000/svg">
<path d="M2.87121 22.0299L7.69054 24.9548L20.3337 4.12264C20.6203 3.6505 20.4698 3.03547 19.9977 2.74893L16.8881 0.861703C16.4159 0.575161 15.8009 0.725612 15.5144 1.19775L2.87121 22.0299Z" fill="#29ABE2"/>
<path d="M2.28614 22.9936L7.10547 25.9185L2.37685 28.2034L2.28614 22.9936Z" fill="#29ABE2"/>
<path d="M27.8639 25.6857V14.0493H35.7048V16.0777H30.3241V18.8504H35.3014V20.8789H30.3241V23.6573H35.7275V25.6857H27.8639ZM40.8312 25.8277C40.1684 25.8277 39.568 25.6573 39.0301 25.3164C38.496 24.9717 38.0718 24.466 37.7574 23.7993C37.4468 23.1289 37.2915 22.3069 37.2915 21.3334C37.2915 20.3334 37.4524 19.502 37.7744 18.8391C38.0964 18.1724 38.5244 17.6743 39.0585 17.3448C39.5964 17.0114 40.1854 16.8448 40.8256 16.8448C41.3142 16.8448 41.7214 16.9281 42.0471 17.0948C42.3767 17.2576 42.6418 17.4622 42.8426 17.7084C43.0471 17.9508 43.2024 18.1895 43.3085 18.4243H43.3824V14.0493H45.7971V25.6857H43.4108V24.2879H43.3085C43.1949 24.5304 43.0339 24.7709 42.8256 25.0095C42.621 25.2444 42.354 25.4395 42.0244 25.5948C41.6987 25.7501 41.3009 25.8277 40.8312 25.8277ZM41.5983 23.9016C41.9884 23.9016 42.318 23.7955 42.5869 23.5834C42.8596 23.3675 43.068 23.0664 43.2119 22.68C43.3596 22.2936 43.4335 21.841 43.4335 21.322C43.4335 20.8031 43.3615 20.3523 43.2176 19.9698C43.0737 19.5872 42.8653 19.2917 42.5926 19.0834C42.3199 18.8751 41.9884 18.7709 41.5983 18.7709C41.2006 18.7709 40.8653 18.8789 40.5926 19.0948C40.3199 19.3107 40.1134 19.6099 39.9733 19.9925C39.8331 20.3751 39.7631 20.8182 39.7631 21.322C39.7631 21.8296 39.8331 22.2785 39.9733 22.6686C40.1172 23.055 40.3237 23.358 40.5926 23.5777C40.8653 23.7936 41.2006 23.9016 41.5983 23.9016ZM47.7872 25.6857V16.9584H50.2077V25.6857H47.7872ZM49.0031 15.8334C48.6433 15.8334 48.3345 15.7141 48.077 15.4754C47.8232 15.233 47.6963 14.9432 47.6963 14.6061C47.6963 14.2728 47.8232 13.9868 48.077 13.7482C48.3345 13.5057 48.6433 13.3845 49.0031 13.3845C49.363 13.3845 49.6698 13.5057 49.9236 13.7482C50.1811 13.9868 50.3099 14.2728 50.3099 14.6061C50.3099 14.9432 50.1811 15.233 49.9236 15.4754C49.6698 15.7141 49.363 15.8334 49.0031 15.8334ZM56.7886 16.9584V18.7766H51.5329V16.9584H56.7886ZM52.7261 14.8675H55.1466V23.0039C55.1466 23.2273 55.1807 23.4016 55.2488 23.5266C55.317 23.6478 55.4117 23.733 55.5329 23.7823C55.6579 23.8315 55.8019 23.8561 55.9648 23.8561C56.0784 23.8561 56.192 23.8467 56.3057 23.8277C56.4193 23.805 56.5064 23.7879 56.567 23.7766L56.9477 25.5777C56.8265 25.6156 56.656 25.6592 56.4363 25.7084C56.2166 25.7614 55.9496 25.7936 55.6352 25.805C55.0519 25.8277 54.5405 25.7501 54.1011 25.572C53.6655 25.394 53.3265 25.1175 53.0841 24.7425C52.8416 24.3675 52.7223 23.894 52.7261 23.322V14.8675ZM72.3809 18.1232H69.8923C69.8469 17.8012 69.7541 17.5152 69.6139 17.2652C69.4738 17.0114 69.2938 16.7955 69.0741 16.6175C68.8544 16.4395 68.6006 16.3031 68.3128 16.2084C68.0287 16.1137 67.72 16.0664 67.3866 16.0664C66.7844 16.0664 66.2597 16.216 65.8128 16.5152C65.3658 16.8107 65.0192 17.2425 64.773 17.8107C64.5268 18.3751 64.4037 19.0607 64.4037 19.8675C64.4037 20.697 64.5268 21.394 64.773 21.9584C65.023 22.5228 65.3715 22.9489 65.8184 23.2368C66.2654 23.5247 66.7825 23.6686 67.3696 23.6686C67.6991 23.6686 68.0041 23.6251 68.2844 23.5379C68.5684 23.4508 68.8203 23.3239 69.04 23.1573C69.2597 22.9868 69.4416 22.7804 69.5855 22.5379C69.7332 22.2955 69.8355 22.019 69.8923 21.7084L72.3809 21.7198C72.3166 22.2539 72.1556 22.769 71.898 23.2652C71.6442 23.7576 71.3014 24.1989 70.8696 24.5891C70.4416 24.9754 69.9302 25.2823 69.3355 25.5095C68.7446 25.733 68.076 25.8448 67.3298 25.8448C66.2919 25.8448 65.3639 25.6099 64.5457 25.1402C63.7313 24.6705 63.0874 23.9906 62.6139 23.1004C62.1442 22.2103 61.9094 21.1326 61.9094 19.8675C61.9094 18.5985 62.148 17.519 62.6253 16.6289C63.1025 15.7387 63.7503 15.0607 64.5684 14.5948C65.3866 14.1251 66.3071 13.8902 67.3298 13.8902C68.0041 13.8902 68.6291 13.9849 69.2048 14.1743C69.7844 14.3637 70.2976 14.6402 70.7446 15.0038C71.1916 15.3637 71.5552 15.805 71.8355 16.3277C72.1196 16.8504 72.3014 17.4489 72.3809 18.1232ZM78.0429 25.8561C77.1603 25.8561 76.397 25.6686 75.7531 25.2936C75.113 24.9148 74.6186 24.3883 74.2702 23.7141C73.9217 23.036 73.7474 22.2501 73.7474 21.3561C73.7474 20.4546 73.9217 19.6667 74.2702 18.9925C74.6186 18.3145 75.113 17.7879 75.7531 17.4129C76.397 17.0342 77.1603 16.8448 78.0429 16.8448C78.9255 16.8448 79.6868 17.0342 80.327 17.4129C80.9709 17.7879 81.4671 18.3145 81.8156 18.9925C82.1641 19.6667 82.3383 20.4546 82.3383 21.3561C82.3383 22.2501 82.1641 23.036 81.8156 23.7141C81.4671 24.3883 80.9709 24.9148 80.327 25.2936C79.6868 25.6686 78.9255 25.8561 78.0429 25.8561ZM78.0542 23.9811C78.4558 23.9811 78.791 23.8675 79.0599 23.6402C79.3289 23.4092 79.5315 23.0948 79.6679 22.697C79.808 22.2993 79.8781 21.8467 79.8781 21.3391C79.8781 20.8315 79.808 20.3789 79.6679 19.9811C79.5315 19.5834 79.3289 19.269 79.0599 19.0379C78.791 18.8069 78.4558 18.6914 78.0542 18.6914C77.6489 18.6914 77.308 18.8069 77.0315 19.0379C76.7588 19.269 76.5523 19.5834 76.4122 19.9811C76.2758 20.3789 76.2077 20.8315 76.2077 21.3391C76.2077 21.8467 76.2758 22.2993 76.4122 22.697C76.5523 23.0948 76.7588 23.4092 77.0315 23.6402C77.308 23.8675 77.6489 23.9811 78.0542 23.9811ZM86.3327 20.6402V25.6857H83.9122V16.9584H86.219V18.4982H86.3213C86.5145 17.9906 86.8383 17.5891 87.2929 17.2936C87.7474 16.9944 88.2986 16.8448 88.9463 16.8448C89.5523 16.8448 90.0808 16.9773 90.5315 17.2425C90.9823 17.5076 91.3327 17.8864 91.5827 18.3789C91.8327 18.8675 91.9577 19.4508 91.9577 20.1289V25.6857H89.5372V20.5607C89.541 20.0266 89.4046 19.6099 89.1281 19.3107C88.8516 19.0076 88.4709 18.8561 87.9861 18.8561C87.6603 18.8561 87.3724 18.9262 87.1224 19.0664C86.8762 19.2065 86.683 19.411 86.5429 19.68C86.4065 19.9451 86.3364 20.2652 86.3327 20.6402ZM98.5074 16.9584V18.7766H93.2517V16.9584H98.5074ZM94.4449 14.8675H96.8653V23.0039C96.8653 23.2273 96.8994 23.4016 96.9676 23.5266C97.0358 23.6478 97.1305 23.733 97.2517 23.7823C97.3767 23.8315 97.5206 23.8561 97.6835 23.8561C97.7971 23.8561 97.9108 23.8467 98.0244 23.8277C98.1381 23.805 98.2252 23.7879 98.2858 23.7766L98.6665 25.5777C98.5452 25.6156 98.3748 25.6592 98.1551 25.7084C97.9354 25.7614 97.6684 25.7936 97.354 25.805C96.7706 25.8277 96.2593 25.7501 95.8199 25.572C95.3843 25.394 95.0452 25.1175 94.8028 24.7425C94.5604 24.3675 94.4411 23.894 94.4449 23.322V14.8675ZM102.573 25.8504C102.016 25.8504 101.52 25.7539 101.084 25.5607C100.648 25.3637 100.304 25.0739 100.05 24.6914C99.8 24.305 99.675 23.8239 99.675 23.2482C99.675 22.7633 99.764 22.3561 99.942 22.0266C100.12 21.697 100.362 21.4319 100.669 21.2311C100.976 21.0304 101.325 20.8789 101.715 20.7766C102.109 20.6743 102.522 20.6023 102.953 20.5607C103.461 20.5076 103.87 20.4584 104.181 20.4129C104.491 20.3637 104.717 20.2917 104.857 20.197C104.997 20.1023 105.067 19.9622 105.067 19.7766V19.7425C105.067 19.3826 104.953 19.1042 104.726 18.9073C104.503 18.7103 104.184 18.6118 103.772 18.6118C103.336 18.6118 102.989 18.7084 102.732 18.9016C102.474 19.091 102.304 19.3296 102.22 19.6175L99.9818 19.4357C100.095 18.9054 100.319 18.447 100.652 18.0607C100.986 17.6705 101.416 17.3713 101.942 17.1629C102.472 16.9508 103.086 16.8448 103.783 16.8448C104.268 16.8448 104.732 16.9016 105.175 17.0152C105.622 17.1289 106.018 17.305 106.362 17.5436C106.711 17.7823 106.986 18.0891 107.186 18.4641C107.387 18.8353 107.487 19.2804 107.487 19.7993V25.6857H105.192V24.4754H105.124C104.984 24.7482 104.796 24.9887 104.561 25.197C104.326 25.4016 104.044 25.5626 103.715 25.68C103.385 25.7936 103.005 25.8504 102.573 25.8504ZM103.266 24.18C103.622 24.18 103.936 24.1099 104.209 23.9698C104.482 23.8258 104.696 23.6326 104.851 23.3902C105.006 23.1478 105.084 22.8732 105.084 22.5664V21.6402C105.008 21.6895 104.904 21.7349 104.772 21.7766C104.643 21.8145 104.497 21.8504 104.334 21.8845C104.171 21.9148 104.008 21.9432 103.845 21.9698C103.683 21.9925 103.535 22.0133 103.402 22.0323C103.118 22.0739 102.87 22.1402 102.658 22.2311C102.446 22.322 102.281 22.4451 102.164 22.6004C102.046 22.752 101.987 22.9414 101.987 23.1686C101.987 23.4982 102.107 23.7501 102.345 23.9243C102.588 24.0948 102.895 24.18 103.266 24.18ZM113.309 25.8561C112.415 25.8561 111.646 25.6667 111.002 25.2879C110.362 24.9054 109.869 24.3751 109.524 23.697C109.184 23.019 109.013 22.2387 109.013 21.3561C109.013 20.4622 109.185 19.6781 109.53 19.0039C109.879 18.3258 110.373 17.7974 111.013 17.4186C111.653 17.036 112.415 16.8448 113.297 16.8448C114.059 16.8448 114.725 16.983 115.297 17.2595C115.869 17.536 116.322 17.9243 116.655 18.4243C116.988 18.9243 117.172 19.5114 117.206 20.1857H114.922C114.858 19.7501 114.687 19.3997 114.411 19.1345C114.138 18.8656 113.78 18.7311 113.337 18.7311C112.962 18.7311 112.634 18.8334 112.354 19.0379C112.077 19.2387 111.862 19.5323 111.706 19.9186C111.551 20.305 111.473 20.7728 111.473 21.322C111.473 21.8789 111.549 22.3523 111.701 22.7425C111.856 23.1326 112.074 23.43 112.354 23.6345C112.634 23.8391 112.962 23.9414 113.337 23.9414C113.613 23.9414 113.862 23.8845 114.081 23.7709C114.305 23.6573 114.488 23.4925 114.632 23.2766C114.78 23.0569 114.877 22.7936 114.922 22.4868H117.206C117.168 23.1535 116.987 23.7406 116.661 24.2482C116.339 24.752 115.894 25.1459 115.326 25.43C114.757 25.7141 114.085 25.8561 113.309 25.8561ZM123.398 16.9584V18.7766H118.142V16.9584H123.398ZM119.335 14.8675H121.756V23.0039C121.756 23.2273 121.79 23.4016 121.858 23.5266C121.926 23.6478 122.021 23.733 122.142 23.7823C122.267 23.8315 122.411 23.8561 122.574 23.8561C122.688 23.8561 122.801 23.8467 122.915 23.8277C123.029 23.805 123.116 23.7879 123.176 23.7766L123.557 25.5777C123.436 25.6156 123.265 25.6592 123.046 25.7084C122.826 25.7614 122.559 25.7936 122.245 25.805C121.661 25.8277 121.15 25.7501 120.71 25.572C120.275 25.394 119.936 25.1175 119.693 24.7425C119.451 24.3675 119.332 23.894 119.335 23.322V14.8675Z" fill="#29ABE2"/>
</svg>
