<svg width="127" height="30" viewBox="0 0 127 30" fill="none" xmlns="http://www.w3.org/2000/svg">
<path d="M2.87121 21.687L7.69054 24.6119L20.3337 3.7798C20.6203 3.30767 20.4698 2.69264 19.9977 2.40609L16.8881 0.518869C16.4159 0.232326 15.8009 0.382778 15.5144 0.854913L2.87121 21.687Z" fill="#2A3647"/>
<path d="M2.28614 22.6508L7.10547 25.5757L2.37685 27.8606L2.28614 22.6508Z" fill="#2A3647"/>
<path d="M28.2616 25.3428V13.7065H35.2844V14.9565H29.6707V18.8883H34.9207V20.1383H29.6707V24.0928H35.3753V25.3428H28.2616ZM40.9378 25.5247C40.2105 25.5247 39.5684 25.3409 39.0116 24.9735C38.4548 24.6023 38.0192 24.0796 37.7048 23.4053C37.3904 22.7273 37.2332 21.9262 37.2332 21.0019C37.2332 20.0853 37.3904 19.2898 37.7048 18.6156C38.0192 17.9413 38.4567 17.4205 39.0173 17.0531C39.5779 16.6856 40.2256 16.5019 40.9605 16.5019C41.5287 16.5019 41.9775 16.5966 42.3071 16.786C42.6404 16.9716 42.8942 17.1837 43.0684 17.4224C43.2465 17.6572 43.3847 17.8504 43.4832 18.0019H43.5969V13.7065H44.9378V25.3428H43.6423V24.0019H43.4832C43.3847 24.161 43.2446 24.3618 43.0628 24.6042C42.8809 24.8428 42.6215 25.0568 42.2844 25.2462C41.9472 25.4318 41.4984 25.5247 40.9378 25.5247ZM41.1196 24.3201C41.6575 24.3201 42.112 24.18 42.4832 23.8997C42.8544 23.6156 43.1366 23.2235 43.3298 22.7235C43.523 22.2197 43.6196 21.6383 43.6196 20.9792C43.6196 20.3277 43.5249 19.7576 43.3355 19.269C43.1461 18.7765 42.8658 18.394 42.4946 18.1212C42.1234 17.8447 41.665 17.7065 41.1196 17.7065C40.5514 17.7065 40.0779 17.8523 39.6991 18.144C39.3241 18.4318 39.0419 18.8239 38.8525 19.3201C38.6669 19.8125 38.5741 20.3656 38.5741 20.9792C38.5741 21.6004 38.6688 22.1648 38.8582 22.6724C39.0514 23.1762 39.3355 23.5777 39.7105 23.8769C40.0893 24.1724 40.559 24.3201 41.1196 24.3201ZM47.5798 25.3428V16.6156H48.9207V25.3428H47.5798ZM48.2616 15.161C48.0003 15.161 47.7749 15.072 47.5855 14.894C47.3999 14.7159 47.3071 14.5019 47.3071 14.2519C47.3071 14.0019 47.3999 13.7879 47.5855 13.6099C47.7749 13.4318 48.0003 13.3428 48.2616 13.3428C48.523 13.3428 48.7465 13.4318 48.9321 13.6099C49.1215 13.7879 49.2162 14.0019 49.2162 14.2519C49.2162 14.5019 49.1215 14.7159 48.9321 14.894C48.7465 15.072 48.523 15.161 48.2616 15.161ZM55.1721 16.6156V17.7519H50.6494V16.6156H55.1721ZM51.9676 14.5247H53.3085V22.8428C53.3085 23.2216 53.3634 23.5057 53.4733 23.6951C53.5869 23.8807 53.7309 24.0057 53.9051 24.0701C54.0831 24.1307 54.2706 24.161 54.4676 24.161C54.6153 24.161 54.7365 24.1534 54.8312 24.1383C54.9259 24.1193 55.0017 24.1042 55.0585 24.0928L55.3312 25.2974C55.2403 25.3315 55.1134 25.3656 54.9506 25.3997C54.7877 25.4375 54.5812 25.4565 54.3312 25.4565C53.9524 25.4565 53.5812 25.375 53.2176 25.2122C52.8577 25.0493 52.5585 24.8012 52.3199 24.4678C52.085 24.1345 51.9676 23.714 51.9676 23.2065V14.5247ZM71.2346 17.3428H69.8256C69.7422 16.9375 69.5964 16.5815 69.3881 16.2747C69.1835 15.9678 68.9335 15.7103 68.6381 15.5019C68.3464 15.2898 68.0225 15.1307 67.6665 15.0247C67.3104 14.9186 66.9392 14.8656 66.5528 14.8656C65.8483 14.8656 65.21 15.0436 64.6381 15.3997C64.0699 15.7557 63.6172 16.2803 63.2801 16.9735C62.9468 17.6667 62.7801 18.5171 62.7801 19.5247C62.7801 20.5322 62.9468 21.3826 63.2801 22.0758C63.6172 22.769 64.0699 23.2936 64.6381 23.6497C65.21 24.0057 65.8483 24.1837 66.5528 24.1837C66.9392 24.1837 67.3104 24.1307 67.6665 24.0247C68.0225 23.9186 68.3464 23.7614 68.6381 23.5531C68.9335 23.3409 69.1835 23.0815 69.3881 22.7747C69.5964 22.464 69.7422 22.108 69.8256 21.7065H71.2346C71.1286 22.3012 70.9354 22.8334 70.6551 23.3031C70.3748 23.7728 70.0263 24.1724 69.6096 24.5019C69.193 24.8277 68.7252 25.0758 68.2062 25.2462C67.6911 25.4167 67.1399 25.5019 66.5528 25.5019C65.5604 25.5019 64.6778 25.2595 63.9051 24.7747C63.1324 24.2898 62.5244 23.6004 62.0812 22.7065C61.6381 21.8125 61.4165 20.7519 61.4165 19.5247C61.4165 18.2974 61.6381 17.2368 62.0812 16.3428C62.5244 15.4489 63.1324 14.7595 63.9051 14.2747C64.6778 13.7898 65.5604 13.5474 66.5528 13.5474C67.1399 13.5474 67.6911 13.6326 68.2062 13.8031C68.7252 13.9735 69.193 14.2235 69.6096 14.5531C70.0263 14.8788 70.3748 15.2765 70.6551 15.7462C70.9354 16.2122 71.1286 16.7443 71.2346 17.3428ZM76.8753 25.5247C76.0874 25.5247 75.3961 25.3372 74.8014 24.9622C74.2105 24.5872 73.7484 24.0625 73.415 23.3883C73.0855 22.714 72.9207 21.9262 72.9207 21.0247C72.9207 20.1156 73.0855 19.322 73.415 18.644C73.7484 17.9659 74.2105 17.4394 74.8014 17.0644C75.3961 16.6894 76.0874 16.5019 76.8753 16.5019C77.6631 16.5019 78.3525 16.6894 78.9434 17.0644C79.5381 17.4394 80.0003 17.9659 80.3298 18.644C80.6631 19.322 80.8298 20.1156 80.8298 21.0247C80.8298 21.9262 80.6631 22.714 80.3298 23.3883C80.0003 24.0625 79.5381 24.5872 78.9434 24.9622C78.3525 25.3372 77.6631 25.5247 76.8753 25.5247ZM76.8753 24.3201C77.4738 24.3201 77.9662 24.1667 78.3525 23.8599C78.7389 23.5531 79.0249 23.1497 79.2105 22.6497C79.3961 22.1497 79.4889 21.608 79.4889 21.0247C79.4889 20.4413 79.3961 19.8978 79.2105 19.394C79.0249 18.8902 78.7389 18.483 78.3525 18.1724C77.9662 17.8618 77.4738 17.7065 76.8753 17.7065C76.2768 17.7065 75.7844 17.8618 75.398 18.1724C75.0116 18.483 74.7256 18.8902 74.54 19.394C74.3544 19.8978 74.2616 20.4413 74.2616 21.0247C74.2616 21.608 74.3544 22.1497 74.54 22.6497C74.7256 23.1497 75.0116 23.5531 75.398 23.8599C75.7844 24.1667 76.2768 24.3201 76.8753 24.3201ZM84.2176 20.0928V25.3428H82.8767V16.6156H84.1721V17.9792H84.2858C84.4903 17.536 84.8009 17.18 85.2176 16.911C85.6343 16.6383 86.1721 16.5019 86.8312 16.5019C87.4221 16.5019 87.9392 16.6231 88.3824 16.8656C88.8256 17.1042 89.1702 17.4678 89.4165 17.9565C89.6627 18.4413 89.7858 19.055 89.7858 19.7974V25.3428H88.4449V19.8883C88.4449 19.2027 88.2668 18.6686 87.9108 18.286C87.5547 17.8997 87.0661 17.7065 86.4449 17.7065C86.0168 17.7065 85.6343 17.7993 85.2971 17.9849C84.9638 18.1705 84.7006 18.4413 84.5074 18.7974C84.3142 19.1534 84.2176 19.5853 84.2176 20.0928ZM96.0315 16.6156V17.7519H91.5088V16.6156H96.0315ZM92.827 14.5247H94.1679V22.8428C94.1679 23.2216 94.2228 23.5057 94.3327 23.6951C94.4463 23.8807 94.5902 24.0057 94.7645 24.0701C94.9425 24.1307 95.13 24.161 95.327 24.161C95.4747 24.161 95.5959 24.1534 95.6906 24.1383C95.7853 24.1193 95.8611 24.1042 95.9179 24.0928L96.1906 25.2974C96.0997 25.3315 95.9728 25.3656 95.8099 25.3997C95.647 25.4375 95.4406 25.4565 95.1906 25.4565C94.8118 25.4565 94.4406 25.375 94.077 25.2122C93.7171 25.0493 93.4179 24.8012 93.1792 24.4678C92.9444 24.1345 92.827 23.714 92.827 23.2065V14.5247ZM100.617 25.5474C100.064 25.5474 99.5618 25.4432 99.1111 25.2349C98.6603 25.0228 98.3023 24.7178 98.0372 24.3201C97.772 23.9186 97.6395 23.4337 97.6395 22.8656C97.6395 22.3656 97.738 21.9603 97.9349 21.6497C98.1319 21.3353 98.3952 21.089 98.7247 20.911C99.0542 20.733 99.4179 20.6004 99.8156 20.5133C100.217 20.4224 100.621 20.3504 101.026 20.2974C101.556 20.2292 101.986 20.1781 102.316 20.144C102.649 20.1061 102.891 20.0436 103.043 19.9565C103.198 19.8693 103.276 19.7178 103.276 19.5019V19.4565C103.276 18.8959 103.122 18.4603 102.816 18.1497C102.513 17.839 102.052 17.6837 101.435 17.6837C100.795 17.6837 100.293 17.8239 99.9292 18.1042C99.5656 18.3845 99.3099 18.6837 99.1622 19.0019L97.8895 18.5474C98.1167 18.0171 98.4198 17.6042 98.7986 17.3087C99.1811 17.0095 99.5978 16.8012 100.049 16.6837C100.503 16.5625 100.95 16.5019 101.389 16.5019C101.67 16.5019 101.992 16.536 102.355 16.6042C102.723 16.6686 103.077 16.8031 103.418 17.0076C103.763 17.2122 104.049 17.5209 104.276 17.9337C104.503 18.3466 104.617 18.8997 104.617 19.5928V25.3428H103.276V24.161H103.208C103.117 24.3504 102.965 24.5531 102.753 24.769C102.541 24.9849 102.259 25.1686 101.907 25.3201C101.554 25.4716 101.124 25.5474 100.617 25.5474ZM100.821 24.3428C101.352 24.3428 101.799 24.2387 102.162 24.0303C102.53 23.822 102.806 23.5531 102.992 23.2235C103.181 22.894 103.276 22.5474 103.276 22.1837V20.9565C103.219 21.0247 103.094 21.0872 102.901 21.144C102.711 21.197 102.492 21.2443 102.242 21.286C101.996 21.3239 101.755 21.358 101.52 21.3883C101.289 21.4148 101.102 21.4375 100.958 21.4565C100.609 21.5019 100.283 21.5758 99.9804 21.6781C99.6811 21.7765 99.4387 21.9262 99.2531 22.1269C99.0713 22.3239 98.9804 22.5928 98.9804 22.9337C98.9804 23.3997 99.1527 23.7519 99.4974 23.9906C99.8459 24.2254 100.287 24.3428 100.821 24.3428ZM110.61 25.5247C109.791 25.5247 109.087 25.3315 108.496 24.9451C107.905 24.5587 107.451 24.0265 107.132 23.3485C106.814 22.6705 106.655 21.8959 106.655 21.0247C106.655 20.1383 106.818 19.3561 107.144 18.6781C107.473 17.9962 107.932 17.464 108.519 17.0815C109.11 16.6951 109.799 16.5019 110.587 16.5019C111.201 16.5019 111.754 16.6156 112.246 16.8428C112.738 17.0701 113.142 17.3883 113.456 17.7974C113.771 18.2065 113.966 18.6837 114.041 19.2292H112.701C112.598 18.8315 112.371 18.4792 112.019 18.1724C111.67 17.8618 111.201 17.7065 110.61 17.7065C110.087 17.7065 109.629 17.8428 109.235 18.1156C108.844 18.3845 108.54 18.7652 108.32 19.2576C108.104 19.7462 107.996 20.3201 107.996 20.9792C107.996 21.6534 108.102 22.2406 108.314 22.7406C108.53 23.2406 108.833 23.6288 109.223 23.9053C109.617 24.1818 110.079 24.3201 110.61 24.3201C110.958 24.3201 111.274 24.2595 111.559 24.1383C111.843 24.0171 112.083 23.8428 112.28 23.6156C112.477 23.3883 112.617 23.1156 112.701 22.7974H114.041C113.966 23.3125 113.778 23.7765 113.479 24.1894C113.184 24.5985 112.791 24.9243 112.303 25.1667C111.818 25.4053 111.254 25.5247 110.61 25.5247ZM119.797 16.6156V17.7519H115.274V16.6156H119.797ZM116.593 14.5247H117.934V22.8428C117.934 23.2216 117.988 23.5057 118.098 23.6951C118.212 23.8807 118.356 24.0057 118.53 24.0701C118.708 24.1307 118.896 24.161 119.093 24.161C119.24 24.161 119.362 24.1534 119.456 24.1383C119.551 24.1193 119.627 24.1042 119.684 24.0928L119.956 25.2974C119.865 25.3315 119.738 25.3656 119.576 25.3997C119.413 25.4375 119.206 25.4565 118.956 25.4565C118.577 25.4565 118.206 25.375 117.843 25.2122C117.483 25.0493 117.184 24.8012 116.945 24.4678C116.71 24.1345 116.593 23.714 116.593 23.2065V14.5247Z" fill="#2A3647"/>
</svg>
