<svg width="21" height="21" viewBox="0 0 21 21" fill="none" xmlns="http://www.w3.org/2000/svg">
<path d="M9.68604 0.342773C14.654 0.342773 18.686 4.37477 18.686 9.34277C18.686 14.3108 14.654 18.3428 9.68604 18.3428C4.71804 18.3428 0.686035 14.3108 0.686035 9.34277C0.686035 4.37477 4.71804 0.342773 9.68604 0.342773ZM9.68604 16.3428C13.553 16.3428 16.686 13.2098 16.686 9.34277C16.686 5.47477 13.553 2.34277 9.68604 2.34277C5.81804 2.34277 2.68604 5.47477 2.68604 9.34277C2.68604 13.2098 5.81804 16.3428 9.68604 16.3428ZM17.686 15.8428L20.3107 18.5348C20.6928 18.9267 20.6889 19.553 20.3018 19.94L20.2832 19.9586C19.8962 20.3456 19.2699 20.3496 18.878 19.9675L16.186 17.3428L17.686 15.8428Z" fill="black"/>
</svg>
